<?xml version="1.0" encoding="UTF-8"?>
<svg xmlns="http://www.w3.org/2000/svg" xmlns:xlink="http://www.w3.org/1999/xlink" viewBox="0 0 47.44 49.52">
  <defs>
    <style>
      .cls-1 {
        fill: #89af3f;
        mix-blend-mode: multiply;
      }

      .cls-2 {
        mix-blend-mode: screen;
      }

      .cls-2, .cls-3 {
        fill: #3cc3d9;
      }

      .cls-4 {
        isolation: isolate;
      }

      .cls-5 {
        fill: #515251;
      }

      .cls-6 {
        clip-path: url(#clippath);
      }
    </style>
    <clipPath id="clippath">
      <path class="cls-3" d="M18.18,26.85h.22c2.12,0,3.85,1.67,3.85,3.71v9.75h24.74l-13.11-20.62L45.39,0H0v40.32h14.33v-9.75c0-2.04,1.73-3.71,3.85-3.71Z"/>
    </clipPath>
  </defs>
  <g class="cls-4">
    <g id="Layer_2" data-name="Layer 2">
      <g id="Layer_1-2" data-name="Layer 1">
        <g>
          <path class="cls-1" d="M18.18,26.85h.22c2.12,0,3.85,1.67,3.85,3.71v9.75h24.74l-13.11-20.62L45.39,0H0v40.32h14.33v-9.75c0-2.04,1.73-3.71,3.85-3.71Z"/>
          <g>
            <path class="cls-5" d="M2.81,46.62l1.66,2.89h-1.55l-1.23-2.18h-.24v2.18H.02v-5.47h1.42v2.18h.21l1.15-2.18h1.45l-1.44,2.58Z"/>
            <path class="cls-5" d="M11.01,44.04h3.59v1.09h-2.15v1.07h1.87v1.08h-1.87v1.14h2.23v1.09h-3.68v-5.47Z"/>
            <path class="cls-5" d="M21.28,44.04h4.1v.9l-2.41,3.51h2.32v1.07h-4.14v-.82l2.43-3.61h-2.29v-1.04Z"/>
            <path class="cls-5" d="M31.61,49.52l1.57-5.47h1.73l1.64,5.47h-1.46l-.36-1.16h-1.37l-.32,1.16h-1.43ZM33.62,47.38h.85l-.3-1.38c-.05-.19-.11-.58-.13-.81h-.01c-.02.21-.07.56-.12.8l-.29,1.39Z"/>
            <path class="cls-5" d="M47.44,49.52h-1.51l-.94-2.09h-.42v2.09h-1.45v-5.47h2c1.22,0,2.04.4,2.04,1.55,0,.75-.36,1.26-.87,1.54l1.13,2.39ZM45.11,46.37c.34,0,.62-.22.62-.66,0-.52-.23-.63-.69-.63h-.46v1.29h.53Z"/>
          </g>
          <g>
            <path class="cls-3" d="M18.18,26.85h.22c2.12,0,3.85,1.67,3.85,3.71v9.75h24.74l-13.11-20.62L45.39,0H0v40.32h14.33v-9.75c0-2.04,1.73-3.71,3.85-3.71Z"/>
            <g class="cls-6">
              <polygon class="cls-2" points="18.58 20.26 21.57 -8.21 20.07 20.38 27.47 -7.28 21.52 20.73 33.16 -5.43 22.9 21.3 38.49 -2.71 24.18 22.08 43.33 .8 25.31 23.05 47.56 5.03 26.29 24.19 51.08 9.87 27.07 25.46 53.79 15.2 27.64 26.85 55.64 20.89 27.99 28.3 56.58 26.8 28.11 29.79 56.58 32.78 27.99 31.28 55.64 38.69 27.64 32.74 53.79 44.38 27.07 34.12 51.08 49.71 26.29 35.39 47.56 54.55 25.31 36.53 43.33 58.78 24.18 37.5 38.49 62.29 22.9 38.28 33.16 65.01 21.52 38.85 27.47 66.86 20.07 39.2 21.57 67.79 18.58 39.32 15.58 67.79 17.08 39.2 9.68 66.86 15.63 38.85 3.99 65.01 14.25 38.28 -1.34 62.29 12.97 37.5 -6.18 58.78 11.84 36.53 -10.41 54.55 10.87 35.39 -13.93 49.71 10.08 34.12 -16.64 44.38 9.51 32.74 -18.49 38.69 9.16 31.28 -19.43 32.78 9.05 29.79 -19.43 26.8 9.16 28.3 -18.49 20.89 9.51 26.85 -16.64 15.2 10.08 25.46 -13.93 9.87 10.87 24.19 -10.41 5.03 11.84 23.05 -6.18 .8 12.97 22.08 -1.34 -2.71 14.25 21.3 3.99 -5.43 15.63 20.73 9.68 -7.28 17.08 20.38 15.58 -8.21 18.58 20.26"/>
            </g>
          </g>
        </g>
      </g>
    </g>
  </g>
</svg>