<?xml version="1.0" encoding="UTF-8"?>
<svg id="Layer_2" data-name="Layer 2" xmlns="http://www.w3.org/2000/svg" viewBox="0 0 568.82 118.9">
  <defs>
    <style>
      .cls-1 {
        fill: #fff;
      }
    </style>
  </defs>
  <g id="Layer_1-2" data-name="Layer 1">
    <g>
      <path class="cls-1" d="M133.5,118.9l-5.8-25.3h-30.8l-5.7,25.3h-18.4L101.7.1h22.5l28.6,118.8h-19.3ZM112.1,25.4l-11.7,52.2h23.7l-11.7-52.2h-.3Z"/>
      <path class="cls-1" d="M165.7.17h19.23l35.15,80.97h.4l-.2-80.97h17.12v118.73h-18.73l-35.65-81.67h-.4l.2,81.67h-17.12V.17h0Z"/>
      <path class="cls-1" d="M255.73.17h60.42v17.62h-41.39v32.13h32.53v17.12h-32.43v34.24h41.49v17.62h-60.62V.17Z"/>
      <path class="cls-1" d="M418.27.17h19.23l35.15,80.97h.4l-.2-80.97h17.12v118.73h-18.73l-35.65-81.67h-.4l.2,81.67h-17.12V.17Z"/>
      <path class="cls-1" d="M508.2.17h60.42v17.62h-41.39v32.13h32.43v17.12h-32.43v34.24h41.59v17.62h-60.62V.17Z"/>
      <path class="cls-1" d="M376.9,100.2h-21.8c-3.1,0-5.8-2.7-5.8-5.8V.8c-10.7,2.6-18.7,12.3-18.7,23.7v69.9c0,13.4,11,24.4,24.4,24.4h21.8c11.5,0,21.2-8,23.7-18.7h-22.9c-.1.1-.4.1-.7.1Z"/>
      <path class="cls-1" d="M24.5,100.2c-3.1,0-5.8-2.7-5.8-5.8V0L0,.2v94.3c0,13.4,11,24.4,24.4,24.4h33.9l4.5-18.7H24.5Z"/>
      <path class="cls-1" d="M400.7,24.5c0-13.4-11-24.4-24.4-24.4h-6.6l-9.2,18.7h15.8c3.1,0,5.8,2.7,5.8,5.8v62.8h18.7V24.5h-.1Z"/>
    </g>
  </g>
</svg>