<?xml version="1.0" encoding="UTF-8"?>
<svg id="Layer_2" xmlns="http://www.w3.org/2000/svg" version="1.1" viewBox="0 0 316.5 28">
  <!-- Generator: Adobe Illustrator 29.5.0, SVG Export Plug-In . SVG Version: 2.1.0 Build 137)  -->
  <defs>
    <style>
      .st0 {
        fill: #fff;
      }

      .st1 {
        fill: #ff3200;
      }
    </style>
  </defs>
  <g id="Layer_1-2">
    <g>
      <g>
        <polygon class="st1" points="253.6 4.1 260.8 7.5 263.5 0 253.6 4.1"/>
        <polygon class="st1" points="273.4 4.1 266.1 7.5 263.5 0 273.4 4.1"/>
        <polygon class="st1" points="277.4 14 269.9 11.3 273.4 4.1 277.4 14"/>
        <polygon class="st1" points="249.6 14 257.1 11.3 253.6 4.1 249.6 14"/>
        <polygon class="st1" points="253.6 23.9 260.8 20.4 263.5 28 253.6 23.9"/>
        <polygon class="st1" points="273.4 23.9 266.1 20.4 263.5 28 273.4 23.9"/>
        <polygon class="st1" points="277.4 14 269.9 16.7 273.4 23.9 277.4 14"/>
        <polygon class="st1" points="249.6 14 257.1 16.7 253.6 23.9 249.6 14"/>
      </g>
      <g>
        <path class="st0" d="M25.4,12.7v12.1h-4.4v-3.1c-1.7,2.2-4.6,3.5-8.8,3.5-7.9,0-12.2-4.2-12.2-11h0C0,7,4.6,2.9,13,2.9s11.3,2.6,12.3,7.6h-5.4c-.8-2.2-2.9-3.5-6.6-3.5-5.8,0-7.8,2.9-7.8,7h0c0,4.2,2,7.1,7.8,7.1s6.9-1.9,7.4-4.8h-8.4v-3.6h13.3,0Z"/>
        <path class="st0" d="M61.7,20.1h-12.1l-2.2,4.7h-5.4L52.7,3.3h6.2l10.7,21.5h-5.7l-2.2-4.7h0ZM59.9,16.2l-4.2-8.7-4.2,8.7h8.4Z"/>
        <path class="st0" d="M113.4,3.2v21.5h-5.1v-13.9l-8.5,14.2-8.5-14.2v13.9h-4.9V3.2h5.7l7.8,13.1,7.8-13.1s5.8,0,5.8,0Z"/>
        <path class="st0" d="M152.6,20.6v4.1h-20.6V3.2h20.6v4.1h-15.4v4.5h14.6v4h-14.6v4.8h15.5,0Z"/>
        <path class="st0" d="M169.1,17h5.1c.3,3.1,3,4.2,7.6,4.2s6.1-.9,6.1-2.7-.8-1.8-3.1-2.2c-2.3-.4-6.8-.5-9.9-1.2-3.1-.7-5-2.2-5-5.5h0c0-4.3,3.9-6.7,10.8-6.7s11.6,2.4,11.9,7.6h-5.1c-.3-2.7-2.7-3.7-7-3.7s-5.3.8-5.3,2.3.7,1.7,3.1,2.1,6.9.6,10,1.2c3.1.6,4.9,2.2,4.9,5.5h0c0,4.8-4.4,7.1-11.6,7.1s-12.2-2.4-12.5-8.1h0Z"/>
        <path class="st0" d="M233.9,9.9h0c0,5.2-3.8,6.8-9,6.8h-8.9v8.1h-5.2V3.2h14.2c5.2,0,9,1.5,9,6.7h0ZM228.6,10c0-2.2-1.5-2.7-3.8-2.7h-8.7v5.5h8.7c2.4,0,3.8-.5,3.8-2.7h0Z"/>
        <path class="st0" d="M292,7.4V3.2h24.5v4.2h-9.6v17.3h-5.2V7.4h-9.6Z"/>
      </g>
    </g>
  </g>
</svg>