<?xml version="1.0" encoding="UTF-8"?>
<svg id="Layer_2" data-name="Layer 2" xmlns="http://www.w3.org/2000/svg" viewBox="0 0 702.27 120.79">
  <defs>
    <style>
      .cls-1 {
        fill: #fff;
      }
    </style>
  </defs>
  <g id="Layer_1-2" data-name="Layer 1">
    <g>
      <g id="uuid-19d34ed4-18d3-4d17-96de-45b02304f826" data-name="Layer 1-2">
        <g>
          <rect class="cls-1" x="99.06" y="98.03" width="30.16" height="18.11"/>
          <path class="cls-1" d="M99.06,60.01v23.35h30.16v-23.35c0-21.98-17.87-39.85-39.84-39.85-9.35,0-17.96,3.24-24.77,8.65-6.8-5.41-15.41-8.65-24.76-8.65C17.87,20.16,0,38.03,0,60.01v56.13h30.16v-56.13c0-5.34,4.34-9.68,9.68-9.68s9.69,4.34,9.69,9.68v56.13h30.16v-56.13c0-5.34,4.34-9.68,9.68-9.68s9.68,4.34,9.68,9.68h0Z"/>
        </g>
      </g>
      <g>
        <path class="cls-1" d="M140.13,71.67v-.35c0-27.62,19.75-49.47,47.72-49.47,32.51,0,47.55,23.95,47.55,51.74,0,2.1,0,4.54-.18,6.82h-63.28c2.62,10.31,10.14,15.56,20.45,15.56,8.04,0,14.16-2.97,20.98-9.61l18.35,15.21c-9.09,11.54-22.2,19.23-40.9,19.23-29.72,0-50.69-19.93-50.69-49.12ZM204.46,63.45c-1.22-10.49-7.52-17.13-16.61-17.13s-14.68,6.64-16.43,17.13h33.04Z"/>
        <path class="cls-1" d="M246.37,23.95h33.21v13.29c6.12-7.87,14.86-15.38,28.32-15.38,20.1,0,32.16,13.29,32.16,34.79v61.88h-33.04v-51.22c0-10.49-5.42-16.08-13.46-16.08s-13.98,5.59-13.98,16.08v51.22h-33.21V23.95Z"/>
        <path class="cls-1" d="M361.39,89.15v-38.63h-11.19v-26.57h11.19V0h33.04v23.95h22.03v26.57h-22.03v32.16c0,6.64,2.97,9.44,9.09,9.44,4.37,0,8.57-1.22,12.59-3.15v25.87c-5.94,3.32-13.81,5.59-23.07,5.59-19.93,0-31.64-8.74-31.64-31.29Z"/>
        <path class="cls-1" d="M422.75,71.67v-.35c0-26.92,22.03-49.47,52.27-49.47s52.09,22.2,52.09,49.12v.35c0,26.92-22.03,49.47-52.44,49.47s-51.92-22.2-51.92-49.12ZM494.94,71.67v-.35c0-11.71-8.57-21.5-20.28-21.5s-19.75,9.61-19.75,21.15v.35c0,11.54,8.39,21.33,20.1,21.33s19.93-9.61,19.93-20.98Z"/>
        <path class="cls-1" d="M539.35,23.95h33.21v19.05c5.42-12.94,14.16-21.33,29.89-20.63v34.96h-2.8c-17.31,0-27.09,9.96-27.09,31.64v29.54h-33.21V23.95Z"/>
        <path class="cls-1" d="M607,71.67v-.35c0-27.62,19.75-49.47,47.72-49.47,32.51,0,47.55,23.95,47.55,51.74,0,2.1,0,4.54-.17,6.82h-63.28c2.62,10.31,10.14,15.56,20.45,15.56,8.04,0,14.16-2.97,20.98-9.61l18.35,15.21c-9.09,11.54-22.2,19.23-40.9,19.23-29.72,0-50.69-19.93-50.69-49.12ZM671.33,63.45c-1.22-10.49-7.52-17.13-16.61-17.13s-14.68,6.64-16.43,17.13h33.04Z"/>
      </g>
    </g>
  </g>
</svg>