<?xml version="1.0" encoding="UTF-8"?>
<svg id="Layer_1" data-name="Layer 1" xmlns="http://www.w3.org/2000/svg" viewBox="0 0 540 540">
  <defs>
    <style>
      .cls-1, .cls-2 {
        fill: none;
      }

      .cls-3 {
        fill: #fff;
      }

      .cls-4 {
        fill: #cae8dc;
      }

      .cls-2 {
        stroke: #cae8dc;
        stroke-linecap: round;
        stroke-width: 2px;
      }

      .cls-5 {
        fill: #86b0a0;
      }
    </style>
  </defs>
  <g>
    <path class="cls-5" d="M211.43,163.47c1.04,0,1.88-.83,1.88-1.86s-.84-1.86-1.88-1.86-1.88.83-1.88,1.86.84,1.86,1.88,1.86Z"/>
    <path class="cls-5" d="M228.77,163.23c1.04,0,1.88-.83,1.88-1.86s-.84-1.86-1.88-1.86-1.88.83-1.88,1.86.84,1.86,1.88,1.86Z"/>
    <path class="cls-5" d="M237.56,163.23c1.04,0,1.88-.83,1.88-1.86s-.84-1.86-1.88-1.86-1.88.83-1.88,1.86.84,1.86,1.88,1.86Z"/>
    <path class="cls-5" d="M202.65,172.13c1.04,0,1.88-.83,1.88-1.86s-.84-1.86-1.88-1.86-1.88.83-1.88,1.86.84,1.86,1.88,1.86Z"/>
    <path class="cls-5" d="M229.01,172.13c1.04,0,1.88-.83,1.88-1.86s-.84-1.86-1.88-1.86-1.88.83-1.88,1.86.84,1.86,1.88,1.86Z"/>
    <path class="cls-5" d="M237.8,172.13c1.04,0,1.88-.83,1.88-1.86s-.84-1.86-1.88-1.86-1.88.83-1.88,1.86.84,1.86,1.88,1.86Z"/>
    <path class="cls-5" d="M246.58,172.13c1.04,0,1.88-.83,1.88-1.86s-.84-1.86-1.88-1.86-1.88.83-1.88,1.86.84,1.86,1.88,1.86Z"/>
    <path class="cls-5" d="M202.65,180.8c1.04,0,1.88-.83,1.88-1.86s-.84-1.86-1.88-1.86-1.88.83-1.88,1.86.84,1.86,1.88,1.86Z"/>
    <path class="cls-5" d="M237.8,180.8c1.04,0,1.88-.83,1.88-1.86s-.84-1.86-1.88-1.86-1.88.83-1.88,1.86.84,1.86,1.88,1.86Z"/>
    <path class="cls-5" d="M246.58,180.8c1.04,0,1.88-.83,1.88-1.86s-.84-1.86-1.88-1.86-1.88.83-1.88,1.86.84,1.86,1.88,1.86Z"/>
    <path class="cls-5" d="M237.8,189.47c1.04,0,1.88-.83,1.88-1.86s-.84-1.86-1.88-1.86-1.88.83-1.88,1.86.84,1.86,1.88,1.86Z"/>
    <path class="cls-5" d="M246.58,189.47c1.04,0,1.88-.83,1.88-1.86s-.84-1.86-1.88-1.86-1.88.83-1.88,1.86.84,1.86,1.88,1.86Z"/>
    <path class="cls-5" d="M202.65,198.14c1.04,0,1.88-.83,1.88-1.86s-.84-1.86-1.88-1.86-1.88.83-1.88,1.86.84,1.86,1.88,1.86Z"/>
    <path class="cls-5" d="M211.43,198.14c1.04,0,1.88-.83,1.88-1.86s-.84-1.86-1.88-1.86-1.88.83-1.88,1.86.84,1.86,1.88,1.86Z"/>
    <path class="cls-5" d="M220.22,198.14c1.04,0,1.88-.83,1.88-1.86s-.84-1.86-1.88-1.86-1.88.83-1.88,1.86.84,1.86,1.88,1.86Z"/>
    <path class="cls-5" d="M229.01,198.14c1.04,0,1.88-.83,1.88-1.86s-.84-1.86-1.88-1.86-1.88.83-1.88,1.86.84,1.86,1.88,1.86Z"/>
    <path class="cls-5" d="M237.8,198.14c1.04,0,1.88-.83,1.88-1.86s-.84-1.86-1.88-1.86-1.88.83-1.88,1.86.84,1.86,1.88,1.86Z"/>
    <path class="cls-5" d="M255.37,198.14c1.04,0,1.88-.83,1.88-1.86s-.84-1.86-1.88-1.86-1.88.83-1.88,1.86.84,1.86,1.88,1.86Z"/>
    <path class="cls-5" d="M193.86,206.81c1.04,0,1.88-.83,1.88-1.86s-.84-1.86-1.88-1.86-1.88.83-1.88,1.86.84,1.86,1.88,1.86Z"/>
    <path class="cls-5" d="M264.16,206.81c1.04,0,1.88-.83,1.88-1.86s-.84-1.86-1.88-1.86-1.88.83-1.88,1.86.84,1.86,1.88,1.86Z"/>
    <path class="cls-5" d="M211.43,215.47c1.04,0,1.88-.83,1.88-1.86s-.84-1.86-1.88-1.86-1.88.83-1.88,1.86.84,1.86,1.88,1.86Z"/>
    <path class="cls-5" d="M220.22,215.47c1.04,0,1.88-.83,1.88-1.86s-.84-1.86-1.88-1.86-1.88.83-1.88,1.86.84,1.86,1.88,1.86Z"/>
    <path class="cls-5" d="M229.01,215.47c1.04,0,1.88-.83,1.88-1.86s-.84-1.86-1.88-1.86-1.88.83-1.88,1.86.84,1.86,1.88,1.86Z"/>
    <path class="cls-5" d="M237.8,215.47c1.04,0,1.88-.83,1.88-1.86s-.84-1.86-1.88-1.86-1.88.83-1.88,1.86.84,1.86,1.88,1.86Z"/>
    <path class="cls-5" d="M246.58,215.47c1.04,0,1.88-.83,1.88-1.86s-.84-1.86-1.88-1.86-1.88.83-1.88,1.86.84,1.86,1.88,1.86Z"/>
    <path class="cls-5" d="M272.95,215.47c1.04,0,1.88-.83,1.88-1.86s-.84-1.86-1.88-1.86-1.88.83-1.88,1.86.84,1.86,1.88,1.86Z"/>
    <path class="cls-5" d="M211.43,224.14c1.04,0,1.88-.83,1.88-1.86s-.84-1.86-1.88-1.86-1.88.83-1.88,1.86.84,1.86,1.88,1.86Z"/>
    <path class="cls-5" d="M220.22,224.14c1.04,0,1.88-.83,1.88-1.86s-.84-1.86-1.88-1.86-1.88.83-1.88,1.86.84,1.86,1.88,1.86Z"/>
    <path class="cls-5" d="M229.01,224.14c1.04,0,1.88-.83,1.88-1.86s-.84-1.86-1.88-1.86-1.88.83-1.88,1.86.84,1.86,1.88,1.86Z"/>
    <path class="cls-5" d="M237.8,224.14c1.04,0,1.88-.83,1.88-1.86s-.84-1.86-1.88-1.86-1.88.83-1.88,1.86.84,1.86,1.88,1.86Z"/>
    <path class="cls-5" d="M246.58,224.14c1.04,0,1.88-.83,1.88-1.86s-.84-1.86-1.88-1.86-1.88.83-1.88,1.86.84,1.86,1.88,1.86Z"/>
    <path class="cls-5" d="M255.37,224.14c1.04,0,1.88-.83,1.88-1.86s-.84-1.86-1.88-1.86-1.88.83-1.88,1.86.84,1.86,1.88,1.86Z"/>
    <path class="cls-5" d="M264.16,224.14c1.04,0,1.88-.83,1.88-1.86s-.84-1.86-1.88-1.86-1.88.83-1.88,1.86.84,1.86,1.88,1.86Z"/>
    <path class="cls-5" d="M272.95,224.14c1.04,0,1.88-.83,1.88-1.86s-.84-1.86-1.88-1.86-1.88.83-1.88,1.86.84,1.86,1.88,1.86Z"/>
    <path class="cls-5" d="M281.73,224.14c1.04,0,1.88-.83,1.88-1.86s-.84-1.86-1.88-1.86-1.88.83-1.88,1.86.84,1.86,1.88,1.86Z"/>
    <path class="cls-5" d="M211.43,232.81c1.04,0,1.88-.83,1.88-1.86s-.84-1.86-1.88-1.86-1.88.83-1.88,1.86.84,1.86,1.88,1.86Z"/>
    <path class="cls-5" d="M220.22,232.81c1.04,0,1.88-.83,1.88-1.86s-.84-1.86-1.88-1.86-1.88.83-1.88,1.86.84,1.86,1.88,1.86Z"/>
    <path class="cls-5" d="M229.01,232.81c1.04,0,1.88-.83,1.88-1.86s-.84-1.86-1.88-1.86-1.88.83-1.88,1.86.84,1.86,1.88,1.86Z"/>
    <path class="cls-5" d="M237.8,232.81c1.04,0,1.88-.83,1.88-1.86s-.84-1.86-1.88-1.86-1.88.83-1.88,1.86.84,1.86,1.88,1.86Z"/>
    <path class="cls-5" d="M246.58,232.81c1.04,0,1.88-.83,1.88-1.86s-.84-1.86-1.88-1.86-1.88.83-1.88,1.86.84,1.86,1.88,1.86Z"/>
    <path class="cls-5" d="M255.37,232.81c1.04,0,1.88-.83,1.88-1.86s-.84-1.86-1.88-1.86-1.88.83-1.88,1.86.84,1.86,1.88,1.86Z"/>
    <path class="cls-5" d="M264.16,232.81c1.04,0,1.88-.83,1.88-1.86s-.84-1.86-1.88-1.86-1.88.83-1.88,1.86.84,1.86,1.88,1.86Z"/>
    <path class="cls-5" d="M272.95,232.81c1.04,0,1.88-.83,1.88-1.86s-.84-1.86-1.88-1.86-1.88.83-1.88,1.86.84,1.86,1.88,1.86Z"/>
    <path class="cls-5" d="M281.73,232.81c1.04,0,1.88-.83,1.88-1.86s-.84-1.86-1.88-1.86-1.88.83-1.88,1.86.84,1.86,1.88,1.86Z"/>
    <path class="cls-5" d="M290.52,232.81c1.04,0,1.88-.83,1.88-1.86s-.84-1.86-1.88-1.86-1.88.83-1.88,1.86.84,1.86,1.88,1.86Z"/>
    <path class="cls-5" d="M211.43,241.48c1.04,0,1.88-.83,1.88-1.86s-.84-1.86-1.88-1.86-1.88.83-1.88,1.86.84,1.86,1.88,1.86Z"/>
    <path class="cls-5" d="M220.22,241.48c1.04,0,1.88-.83,1.88-1.86s-.84-1.86-1.88-1.86-1.88.83-1.88,1.86.84,1.86,1.88,1.86Z"/>
    <path class="cls-5" d="M229.01,241.48c1.04,0,1.88-.83,1.88-1.86s-.84-1.86-1.88-1.86-1.88.83-1.88,1.86.84,1.86,1.88,1.86Z"/>
    <path class="cls-5" d="M237.8,241.48c1.04,0,1.88-.83,1.88-1.86s-.84-1.86-1.88-1.86-1.88.83-1.88,1.86.84,1.86,1.88,1.86Z"/>
    <path class="cls-5" d="M246.58,241.48c1.04,0,1.88-.83,1.88-1.86s-.84-1.86-1.88-1.86-1.88.83-1.88,1.86.84,1.86,1.88,1.86Z"/>
    <path class="cls-5" d="M255.37,241.48c1.04,0,1.88-.83,1.88-1.86s-.84-1.86-1.88-1.86-1.88.83-1.88,1.86.84,1.86,1.88,1.86Z"/>
    <path class="cls-5" d="M264.16,241.48c1.04,0,1.88-.83,1.88-1.86s-.84-1.86-1.88-1.86-1.88.83-1.88,1.86.84,1.86,1.88,1.86Z"/>
    <path class="cls-5" d="M272.95,241.48c1.04,0,1.88-.83,1.88-1.86s-.84-1.86-1.88-1.86-1.88.83-1.88,1.86.84,1.86,1.88,1.86Z"/>
    <path class="cls-5" d="M281.73,241.48c1.04,0,1.88-.83,1.88-1.86s-.84-1.86-1.88-1.86-1.88.83-1.88,1.86.84,1.86,1.88,1.86Z"/>
    <path class="cls-5" d="M290.52,241.48c1.04,0,1.88-.83,1.88-1.86s-.84-1.86-1.88-1.86-1.88.83-1.88,1.86.84,1.86,1.88,1.86Z"/>
    <path class="cls-5" d="M264.16,250.15c1.04,0,1.88-.83,1.88-1.86s-.84-1.86-1.88-1.86-1.88.83-1.88,1.86.84,1.86,1.88,1.86Z"/>
    <path class="cls-5" d="M272.95,250.15c1.04,0,1.88-.83,1.88-1.86s-.84-1.86-1.88-1.86-1.88.83-1.88,1.86.84,1.86,1.88,1.86Z"/>
    <path class="cls-5" d="M281.73,250.15c1.04,0,1.88-.83,1.88-1.86s-.84-1.86-1.88-1.86-1.88.83-1.88,1.86.84,1.86,1.88,1.86Z"/>
    <path class="cls-5" d="M290.52,250.15c1.04,0,1.88-.83,1.88-1.86s-.84-1.86-1.88-1.86-1.88.83-1.88,1.86.84,1.86,1.88,1.86Z"/>
    <path class="cls-5" d="M299.31,250.15c1.04,0,1.88-.83,1.88-1.86s-.84-1.86-1.88-1.86-1.88.83-1.88,1.86.84,1.86,1.88,1.86Z"/>
    <path class="cls-5" d="M272.95,258.81c1.04,0,1.88-.83,1.88-1.86s-.84-1.86-1.88-1.86-1.88.83-1.88,1.86.84,1.86,1.88,1.86Z"/>
    <path class="cls-5" d="M281.73,258.81c1.04,0,1.88-.83,1.88-1.86s-.84-1.86-1.88-1.86-1.88.83-1.88,1.86.84,1.86,1.88,1.86Z"/>
    <path class="cls-5" d="M290.52,258.81c1.04,0,1.88-.83,1.88-1.86s-.84-1.86-1.88-1.86-1.88.83-1.88,1.86.84,1.86,1.88,1.86Z"/>
    <path class="cls-5" d="M299.31,258.81c1.04,0,1.88-.83,1.88-1.86s-.84-1.86-1.88-1.86-1.88.83-1.88,1.86.84,1.86,1.88,1.86Z"/>
    <path class="cls-5" d="M193.86,267.48c1.04,0,1.88-.83,1.88-1.86s-.84-1.86-1.88-1.86-1.88.83-1.88,1.86.84,1.86,1.88,1.86Z"/>
    <path class="cls-5" d="M272.95,267.48c1.04,0,1.88-.83,1.88-1.86s-.84-1.86-1.88-1.86-1.88.83-1.88,1.86.84,1.86,1.88,1.86Z"/>
    <path class="cls-5" d="M281.73,267.48c1.04,0,1.88-.83,1.88-1.86s-.84-1.86-1.88-1.86-1.88.83-1.88,1.86.84,1.86,1.88,1.86Z"/>
    <path class="cls-5" d="M290.52,267.48c1.04,0,1.88-.83,1.88-1.86s-.84-1.86-1.88-1.86-1.88.83-1.88,1.86.84,1.86,1.88,1.86Z"/>
    <path class="cls-5" d="M299.31,267.48c1.04,0,1.88-.83,1.88-1.86s-.84-1.86-1.88-1.86-1.88.83-1.88,1.86.84,1.86,1.88,1.86Z"/>
    <path class="cls-5" d="M202.65,276.15c1.04,0,1.88-.83,1.88-1.86s-.84-1.86-1.88-1.86-1.88.83-1.88,1.86.84,1.86,1.88,1.86Z"/>
    <path class="cls-5" d="M211.43,276.15c1.04,0,1.88-.83,1.88-1.86s-.84-1.86-1.88-1.86-1.88.83-1.88,1.86.84,1.86,1.88,1.86Z"/>
    <path class="cls-5" d="M272.95,276.15c1.04,0,1.88-.83,1.88-1.86s-.84-1.86-1.88-1.86-1.88.83-1.88,1.86.84,1.86,1.88,1.86Z"/>
    <path class="cls-5" d="M281.73,276.15c1.04,0,1.88-.83,1.88-1.86s-.84-1.86-1.88-1.86-1.88.83-1.88,1.86.84,1.86,1.88,1.86Z"/>
    <path class="cls-5" d="M290.52,276.15c1.04,0,1.88-.83,1.88-1.86s-.84-1.86-1.88-1.86-1.88.83-1.88,1.86.84,1.86,1.88,1.86Z"/>
    <path class="cls-5" d="M299.31,276.15c1.04,0,1.88-.83,1.88-1.86s-.84-1.86-1.88-1.86-1.88.83-1.88,1.86.84,1.86,1.88,1.86Z"/>
    <path class="cls-5" d="M211.43,284.82c1.04,0,1.88-.83,1.88-1.86s-.84-1.86-1.88-1.86-1.88.83-1.88,1.86.84,1.86,1.88,1.86Z"/>
    <path class="cls-5" d="M220.22,284.82c1.04,0,1.88-.83,1.88-1.86s-.84-1.86-1.88-1.86-1.88.83-1.88,1.86.84,1.86,1.88,1.86Z"/>
    <path class="cls-5" d="M272.95,284.82c1.04,0,1.88-.83,1.88-1.86s-.84-1.86-1.88-1.86-1.88.83-1.88,1.86.84,1.86,1.88,1.86Z"/>
    <path class="cls-5" d="M281.73,284.82c1.04,0,1.88-.83,1.88-1.86s-.84-1.86-1.88-1.86-1.88.83-1.88,1.86.84,1.86,1.88,1.86Z"/>
    <path class="cls-5" d="M290.52,284.82c1.04,0,1.88-.83,1.88-1.86s-.84-1.86-1.88-1.86-1.88.83-1.88,1.86.84,1.86,1.88,1.86Z"/>
    <path class="cls-5" d="M299.31,284.82c1.04,0,1.88-.83,1.88-1.86s-.84-1.86-1.88-1.86-1.88.83-1.88,1.86.84,1.86,1.88,1.86Z"/>
    <path class="cls-5" d="M308.1,284.82c1.04,0,1.88-.83,1.88-1.86s-.84-1.86-1.88-1.86-1.88.83-1.88,1.86.84,1.86,1.88,1.86Z"/>
    <path class="cls-5" d="M220.22,293.49c1.04,0,1.88-.83,1.88-1.86s-.84-1.86-1.88-1.86-1.88.83-1.88,1.86.84,1.86,1.88,1.86Z"/>
    <path class="cls-5" d="M229.01,293.49c1.04,0,1.88-.83,1.88-1.86s-.84-1.86-1.88-1.86-1.88.83-1.88,1.86.84,1.86,1.88,1.86Z"/>
    <path class="cls-5" d="M237.8,293.49c1.04,0,1.88-.83,1.88-1.86s-.84-1.86-1.88-1.86-1.88.83-1.88,1.86.84,1.86,1.88,1.86Z"/>
    <path class="cls-5" d="M246.58,293.49c1.04,0,1.88-.83,1.88-1.86s-.84-1.86-1.88-1.86-1.88.83-1.88,1.86.84,1.86,1.88,1.86Z"/>
    <path class="cls-5" d="M255.37,293.49c1.04,0,1.88-.83,1.88-1.86s-.84-1.86-1.88-1.86-1.88.83-1.88,1.86.84,1.86,1.88,1.86Z"/>
    <path class="cls-5" d="M264.16,293.49c1.04,0,1.88-.83,1.88-1.86s-.84-1.86-1.88-1.86-1.88.83-1.88,1.86.84,1.86,1.88,1.86Z"/>
    <path class="cls-5" d="M272.95,293.49c1.04,0,1.88-.83,1.88-1.86s-.84-1.86-1.88-1.86-1.88.83-1.88,1.86.84,1.86,1.88,1.86Z"/>
    <path class="cls-5" d="M281.73,293.49c1.04,0,1.88-.83,1.88-1.86s-.84-1.86-1.88-1.86-1.88.83-1.88,1.86.84,1.86,1.88,1.86Z"/>
    <path class="cls-5" d="M290.52,293.49c1.04,0,1.88-.83,1.88-1.86s-.84-1.86-1.88-1.86-1.88.83-1.88,1.86.84,1.86,1.88,1.86Z"/>
    <path class="cls-5" d="M299.31,293.49c1.04,0,1.88-.83,1.88-1.86s-.84-1.86-1.88-1.86-1.88.83-1.88,1.86.84,1.86,1.88,1.86Z"/>
    <path class="cls-5" d="M308.1,293.49c1.04,0,1.88-.83,1.88-1.86s-.84-1.86-1.88-1.86-1.88.83-1.88,1.86.84,1.86,1.88,1.86Z"/>
    <path class="cls-5" d="M229.01,302.15c1.04,0,1.88-.83,1.88-1.86s-.84-1.86-1.88-1.86-1.88.83-1.88,1.86.84,1.86,1.88,1.86Z"/>
    <path class="cls-5" d="M237.8,302.15c1.04,0,1.88-.83,1.88-1.86s-.84-1.86-1.88-1.86-1.88.83-1.88,1.86.84,1.86,1.88,1.86Z"/>
    <path class="cls-5" d="M246.58,302.15c1.04,0,1.88-.83,1.88-1.86s-.84-1.86-1.88-1.86-1.88.83-1.88,1.86.84,1.86,1.88,1.86Z"/>
    <path class="cls-5" d="M255.37,302.15c1.04,0,1.88-.83,1.88-1.86s-.84-1.86-1.88-1.86-1.88.83-1.88,1.86.84,1.86,1.88,1.86Z"/>
    <path class="cls-5" d="M264.16,302.15c1.04,0,1.88-.83,1.88-1.86s-.84-1.86-1.88-1.86-1.88.83-1.88,1.86.84,1.86,1.88,1.86Z"/>
    <path class="cls-5" d="M272.95,302.15c1.04,0,1.88-.83,1.88-1.86s-.84-1.86-1.88-1.86-1.88.83-1.88,1.86.84,1.86,1.88,1.86Z"/>
    <path class="cls-5" d="M281.73,302.15c1.04,0,1.88-.83,1.88-1.86s-.84-1.86-1.88-1.86-1.88.83-1.88,1.86.84,1.86,1.88,1.86Z"/>
    <path class="cls-5" d="M290.52,302.15c1.04,0,1.88-.83,1.88-1.86s-.84-1.86-1.88-1.86-1.88.83-1.88,1.86.84,1.86,1.88,1.86Z"/>
    <path class="cls-5" d="M299.31,302.15c1.04,0,1.88-.83,1.88-1.86s-.84-1.86-1.88-1.86-1.88.83-1.88,1.86.84,1.86,1.88,1.86Z"/>
    <path class="cls-5" d="M308.1,302.15c1.04,0-1.88-24.98-1.88-26s2.92,22.29,1.88,22.29-1.88.83-1.88,1.86.84,1.86,1.88,1.86Z"/>
    <path class="cls-5" d="M246.58,310.82c1.04,0,1.88-.83,1.88-1.86s-.84-1.86-1.88-1.86-1.88.83-1.88,1.86.84,1.86,1.88,1.86Z"/>
    <path class="cls-5" d="M255.37,310.82c1.04,0,1.88-.83,1.88-1.86s-.84-1.86-1.88-1.86-1.88.83-1.88,1.86.84,1.86,1.88,1.86Z"/>
    <path class="cls-5" d="M264.16,310.82c1.04,0,1.88-.83,1.88-1.86s-.84-1.86-1.88-1.86-1.88.83-1.88,1.86.84,1.86,1.88,1.86Z"/>
    <path class="cls-5" d="M272.95,310.82c1.04,0,1.88-.83,1.88-1.86s-.84-1.86-1.88-1.86-1.88.83-1.88,1.86.84,1.86,1.88,1.86Z"/>
    <path class="cls-5" d="M281.73,310.82c1.04,0,1.88-.83,1.88-1.86s-.84-1.86-1.88-1.86-1.88.83-1.88,1.86.84,1.86,1.88,1.86Z"/>
    <path class="cls-5" d="M290.52,310.82c1.04,0,1.88-.83,1.88-1.86s-.84-1.86-1.88-1.86-1.88.83-1.88,1.86.84,1.86,1.88,1.86Z"/>
    <path class="cls-5" d="M299.31,310.82c1.04,0,1.88-.83,1.88-1.86s-.84-1.86-1.88-1.86-1.88.83-1.88,1.86.84,1.86,1.88,1.86Z"/>
    <path class="cls-5" d="M308.1,310.82c1.04,0,1.88-.83,1.88-1.86s-.84-1.86-1.88-1.86-1.88.83-1.88,1.86.84,1.86,1.88,1.86Z"/>
    <path class="cls-5" d="M246.58,319.49c1.04,0,1.88-.83,1.88-1.86s-.84-1.86-1.88-1.86-1.88.83-1.88,1.86.84,1.86,1.88,1.86Z"/>
    <path class="cls-5" d="M255.37,319.49c1.04,0,1.88-.83,1.88-1.86s-.84-1.86-1.88-1.86-1.88.83-1.88,1.86.84,1.86,1.88,1.86Z"/>
    <path class="cls-5" d="M264.16,319.49c1.04,0,1.88-.83,1.88-1.86s-.84-1.86-1.88-1.86-1.88.83-1.88,1.86.84,1.86,1.88,1.86Z"/>
    <path class="cls-5" d="M272.95,319.49c1.04,0,1.88-.83,1.88-1.86s-.84-1.86-1.88-1.86-1.88.83-1.88,1.86.84,1.86,1.88,1.86Z"/>
    <path class="cls-5" d="M281.73,319.49c1.04,0,1.88-.83,1.88-1.86s-.84-1.86-1.88-1.86-1.88.83-1.88,1.86.84,1.86,1.88,1.86Z"/>
    <path class="cls-5" d="M290.52,319.49c1.04,0,1.88-.83,1.88-1.86s-.84-1.86-1.88-1.86-1.88.83-1.88,1.86.84,1.86,1.88,1.86Z"/>
    <path class="cls-5" d="M299.31,319.49c1.04,0,1.88-.83,1.88-1.86s-.84-1.86-1.88-1.86-1.88.83-1.88,1.86.84,1.86,1.88,1.86Z"/>
    <path class="cls-5" d="M308.1,319.49c1.04,0,1.88-.83,1.88-1.86s-.84-1.86-1.88-1.86-1.88.83-1.88,1.86.84,1.86,1.88,1.86Z"/>
    <path class="cls-5" d="M255.37,328.16c1.04,0,1.88-.83,1.88-1.86s-.84-1.86-1.88-1.86-1.88.83-1.88,1.86.84,1.86,1.88,1.86Z"/>
    <path class="cls-5" d="M264.16,328.16c1.04,0,1.88-.83,1.88-1.86s-.84-1.86-1.88-1.86-1.88.83-1.88,1.86.84,1.86,1.88,1.86Z"/>
    <path class="cls-5" d="M272.95,328.16c1.04,0,1.88-.83,1.88-1.86s-.84-1.86-1.88-1.86-1.88.83-1.88,1.86.84,1.86,1.88,1.86Z"/>
    <path class="cls-5" d="M281.73,328.16c1.04,0,1.88-.83,1.88-1.86s-.84-1.86-1.88-1.86-1.88.83-1.88,1.86.84,1.86,1.88,1.86Z"/>
    <path class="cls-5" d="M290.52,328.16c1.04,0,1.88-.83,1.88-1.86s-.84-1.86-1.88-1.86-1.88.83-1.88,1.86.84,1.86,1.88,1.86Z"/>
    <path class="cls-5" d="M299.31,328.16c1.04,0,1.88-.83,1.88-1.86s-.84-1.86-1.88-1.86-1.88.83-1.88,1.86.84,1.86,1.88,1.86Z"/>
    <path class="cls-5" d="M308.1,328.16c1.04,0,1.88-.83,1.88-1.86s-.84-1.86-1.88-1.86-1.88.83-1.88,1.86.84,1.86,1.88,1.86Z"/>
    <path class="cls-5" d="M316.88,328.16c1.04,0,1.88-.83,1.88-1.86s-.84-1.86-1.88-1.86-1.88.83-1.88,1.86.84,1.86,1.88,1.86Z"/>
    <path class="cls-5" d="M228.77,153.26c1.04,0,1.88-.83,1.88-1.86s-.84-1.86-1.88-1.86-1.88.83-1.88,1.86.84,1.86,1.88,1.86Z"/>
    <path class="cls-5" d="M237.56,153.26c1.04,0,1.88-.83,1.88-1.86s-.84-1.86-1.88-1.86-1.88.83-1.88,1.86.84,1.86,1.88,1.86Z"/>
    <path class="cls-5" d="M237.56,142.74c1.04,0,1.88-.83,1.88-1.86s-.84-1.86-1.88-1.86-1.88.83-1.88,1.86.84,1.86,1.88,1.86Z"/>
    <path class="cls-5" d="M255.37,336.86c1.04,0,1.88-.83,1.88-1.86s-.84-1.86-1.88-1.86-1.88.83-1.88,1.86.84,1.86,1.88,1.86Z"/>
    <path class="cls-5" d="M264.16,336.86c1.04,0,1.88-.83,1.88-1.86s-.84-1.86-1.88-1.86-1.88.83-1.88,1.86.84,1.86,1.88,1.86Z"/>
    <path class="cls-5" d="M272.95,336.86c1.04,0,1.88-.83,1.88-1.86s-.84-1.86-1.88-1.86-1.88.83-1.88,1.86.84,1.86,1.88,1.86Z"/>
    <path class="cls-5" d="M281.73,336.86c1.04,0,1.88-.83,1.88-1.86s-.84-1.86-1.88-1.86-1.88.83-1.88,1.86.84,1.86,1.88,1.86Z"/>
    <path class="cls-5" d="M290.52,336.86c1.04,0,1.88-.83,1.88-1.86s-.84-1.86-1.88-1.86-1.88.83-1.88,1.86.84,1.86,1.88,1.86Z"/>
    <path class="cls-5" d="M299.31,336.86c1.04,0,1.88-.83,1.88-1.86s-.84-1.86-1.88-1.86-1.88.83-1.88,1.86.84,1.86,1.88,1.86Z"/>
    <path class="cls-5" d="M308.1,336.86c1.04,0,1.88-.83,1.88-1.86s-.84-1.86-1.88-1.86-1.88.83-1.88,1.86.84,1.86,1.88,1.86Z"/>
    <path class="cls-5" d="M255.37,345.53c1.04,0,1.88-.83,1.88-1.86s-.84-1.86-1.88-1.86-1.88.83-1.88,1.86.84,1.86,1.88,1.86Z"/>
    <path class="cls-5" d="M264.16,345.53c1.04,0,1.88-.83,1.88-1.86s-.84-1.86-1.88-1.86-1.88.83-1.88,1.86.84,1.86,1.88,1.86Z"/>
    <path class="cls-5" d="M272.95,345.53c1.04,0,1.88-.83,1.88-1.86s-.84-1.86-1.88-1.86-1.88.83-1.88,1.86.84,1.86,1.88,1.86Z"/>
    <path class="cls-5" d="M281.73,345.53c1.04,0,1.88-.83,1.88-1.86s-.84-1.86-1.88-1.86-1.88.83-1.88,1.86.84,1.86,1.88,1.86Z"/>
    <path class="cls-5" d="M290.52,345.53c1.04,0,1.88-.83,1.88-1.86s-.84-1.86-1.88-1.86-1.88.83-1.88,1.86.84,1.86,1.88,1.86Z"/>
    <path class="cls-5" d="M299.31,345.53c1.04,0,1.88-.83,1.88-1.86s-.84-1.86-1.88-1.86-1.88.83-1.88,1.86.84,1.86,1.88,1.86Z"/>
    <path class="cls-5" d="M308.1,345.53c1.04,0,1.88-.83,1.88-1.86s-.84-1.86-1.88-1.86-1.88.83-1.88,1.86.84,1.86,1.88,1.86Z"/>
    <path class="cls-5" d="M255.37,354.2c1.04,0,1.88-.83,1.88-1.86s-.84-1.86-1.88-1.86-1.88.83-1.88,1.86.84,1.86,1.88,1.86Z"/>
    <path class="cls-5" d="M264.16,354.2c1.04,0,1.88-.83,1.88-1.86s-.84-1.86-1.88-1.86-1.88.83-1.88,1.86.84,1.86,1.88,1.86Z"/>
    <path class="cls-5" d="M272.95,354.2c1.04,0,1.88-.83,1.88-1.86s-.84-1.86-1.88-1.86-1.88.83-1.88,1.86.84,1.86,1.88,1.86Z"/>
    <path class="cls-5" d="M281.73,354.2c1.04,0,1.88-.83,1.88-1.86s-.84-1.86-1.88-1.86-1.88.83-1.88,1.86.84,1.86,1.88,1.86Z"/>
    <path class="cls-5" d="M290.52,354.2c1.04,0,1.88-.83,1.88-1.86s-.84-1.86-1.88-1.86-1.88.83-1.88,1.86.84,1.86,1.88,1.86Z"/>
    <path class="cls-5" d="M299.31,354.2c1.04,0,1.88-.83,1.88-1.86s-.84-1.86-1.88-1.86-1.88.83-1.88,1.86.84,1.86,1.88,1.86Z"/>
    <path class="cls-5" d="M264.16,362.87c1.04,0,1.88-.83,1.88-1.86s-.84-1.86-1.88-1.86-1.88.83-1.88,1.86.84,1.86,1.88,1.86Z"/>
    <path class="cls-5" d="M272.95,362.87c1.04,0,1.88-.83,1.88-1.86s-.84-1.86-1.88-1.86-1.88.83-1.88,1.86.84,1.86,1.88,1.86Z"/>
    <path class="cls-5" d="M281.73,362.87c1.04,0,1.88-.83,1.88-1.86s-.84-1.86-1.88-1.86-1.88.83-1.88,1.86.84,1.86,1.88,1.86Z"/>
    <path class="cls-2" d="M232.67,187.55c-3.91-7.04-11.11-21.91-11.74-31.31M236.76,123.47s6.07-3.91,7.83,0c1.75,3.91,1.25,30.05,6.26,43.83,6.26,17.22,25.57,38.09,35.22,48.53,7.57,7.83,20.66,30.52,12.52,58.7-8.14,28.18-31.05,35.22-41.48,35.22"/>
    <path class="cls-4" d="M237.47,231.3c-.05-.92-.83-1.62-1.75-1.58-.92.05-1.62.83-1.58,1.75l3.32-.17ZM251.46,251.73l-.5,1.59.5-1.59ZM235.8,231.38l-1.66.08c.28,5.58,3.99,17.8,16.81,21.85l.5-1.59.5-1.59c-10.96-3.46-14.25-13.99-14.49-18.85l-1.66.08ZM251.46,251.73l-.5,1.59c7.52,2.37,19.4,5.83,28.37,11.55,4.47,2.86,8.06,6.18,10.05,10.07,1.95,3.82,2.43,8.33.43,13.79l1.56.57,1.56.57c2.3-6.28,1.81-11.75-.6-16.45-2.36-4.62-6.5-8.34-11.22-11.36-9.42-6.02-21.8-9.6-29.16-11.93l-.5,1.59Z"/>
    <path class="cls-2" d="M246.94,362.18s-3.91-38.35-7.04-47.74c-3.13-9.39-61.05-50.09-61.05-50.09,0,0-14.09-12.52-9.39-32.87,1.88-8.13,4.38-17.77,7.01-26.61M261.81,214.26s-11.74-18-25.83-24.26c-7.91-3.51-21.69-6.99-32.27-9.49M318.16,331.66l-17.22-70.44M176.46,204.87c3.95-13.27,6.12-22.53,10.04-25.14,3.91-2.61,8.95-1.18,17.22.78M176.46,204.87s-7.01-29.74-4.66-35.22c2.35-5.48,37.57-31.31,39.92-33.65,2.35-2.35,18-16.44,21.13-17.22,3.13-.78,6.91,10.77,1.39,21.82-3.91,7.83-10.17,12.52-14.09,15.65,0,0-15.48,11.84-16.26,14.19-.78,2.35-.17,10.08-.17,10.08"/>
    <path class="cls-2" d="M182.58,244s7.04-32.09,9.39-37.57c2.35-5.48,4.52-7.04,8.43-7.04s26-1.57,31.48,0c5.48,1.57,27.39,12.52,28.18,16.44.78,3.91-4.23,10.8-14.87,10.17-10.64-.63-15.92-4.44-17.22-6.26,0,0-13.3,3.13-14.87,4.7-1.56,1.57-1.56,25.83-1.56,25.83M184.15,157.91c3.13-11.22,10.8-36.94,13.3-40.7,3.13-4.7,10.96,1.57,12.52,6.26,1.57,4.7,2.35,12.52-.78,14.87"/>
    <path class="cls-2" d="M242.26,65.45v42.26"/>
    <path class="cls-2" d="M257.47,71.23l-29.89,29.89"/>
    <path class="cls-2" d="M263.98,86.59h-42.26"/>
    <path class="cls-2" d="M257.89,101.53l-29.89-29.89"/>
    <path class="cls-3" d="M35.68,471.24c0,7.32,4.19,11.51,10.05,11.51,4.23,0,7.09-2,8.32-5.56l-3.69-1.76c-.6,2.33-2.23,3.79-4.63,3.79-3.49,0-5.62-2.9-5.62-7.99s2.13-7.95,5.62-7.95c2.4,0,4.03,1.4,4.63,3.76l3.69-1.8c-1.23-3.53-4.09-5.52-8.32-5.52-5.86,0-10.05,4.19-10.05,11.51ZM67.73,465.34c-3.16-.6-5.52,1.4-6.22,4.33l-.47-4.06h-3.46v16.74h4.09v-8.09c0-3.26,1.8-4.96,4.13-4.96.6,0,1.3.1,1.7.23l.23-4.19ZM77.43,479.62c-2.43,0-3.89-1.83-3.99-4.93h10.58c.17-.47.33-1.36.33-2.23,0-4.06-2.36-7.25-6.92-7.25-4.86,0-7.92,3.43-7.92,8.89s3.06,8.65,7.89,8.65c3.09,0,5.89-1.36,6.79-4.63l-3.39-1.1c-.47,1.83-1.66,2.6-3.36,2.6ZM73.5,472.43c.27-2.66,1.66-4.26,3.86-4.26,2.03,0,3.09,1.56,3.09,3.43,0,.23,0,.57-.03.83h-6.92ZM100.7,470.6c0-3.53-2.16-5.39-6.32-5.39-3.73,0-6.36,1.86-6.69,5.09l3.86.6c.03-1.63.9-2.63,2.63-2.63s2.6.97,2.6,2.56v1.86c-.6-.07-1.33-.1-1.83-.1-5.22,0-8.02,2-8.02,5.32,0,3.03,2.2,4.76,5.26,4.76,2.16,0,4.16-.97,4.83-2.73.13.47.3.87.5,1.23.63.97,1.7,1.5,3.09,1.5.87,0,1.8-.23,2.4-.63l-.17-2.8c-.23.2-.6.33-.97.33-.7,0-1.16-.33-1.16-1.3v-7.69ZM96.78,476.23c0,2.63-1.66,3.66-3.33,3.66s-2.53-.9-2.53-2.23c0-1.83,1.56-2.7,4.49-2.7.5,0,1,.07,1.36.1v1.16ZM115.38,478.52c-.93.6-1.66.87-2.66.87-1.3,0-2.13-.67-2.13-2.26v-8.45h4.69v-3.06h-4.69v-4.09l-4.13.53v3.56h-2.26v3.06h2.26v8.95c0,3.53,2.16,5.12,5.49,5.12,1.46,0,2.93-.43,3.99-1.2l-.57-3.03ZM126.15,479.62c-2.43,0-3.89-1.83-3.99-4.93h10.58c.17-.47.33-1.36.33-2.23,0-4.06-2.36-7.25-6.92-7.25-4.86,0-7.92,3.43-7.92,8.89s3.06,8.65,7.89,8.65c3.09,0,5.89-1.36,6.79-4.63l-3.39-1.1c-.47,1.83-1.66,2.6-3.36,2.6ZM122.22,472.43c.27-2.66,1.66-4.26,3.86-4.26,2.03,0,3.09,1.56,3.09,3.43,0,.23,0,.57-.03.83h-6.92ZM143.24,478.16c.6,3,3.39,4.59,6.96,4.59,3.96,0,6.86-1.86,6.86-5.29,0-6.72-9.32-3.63-9.32-7.29,0-1.36,1-2.16,2.66-2.16,1.8,0,2.76.97,2.9,2.4l3.56-.43c-.4-3.06-2.66-4.76-6.49-4.76-3.63,0-6.49,1.93-6.49,5.32,0,6.52,9.28,3.59,9.28,7.29,0,1.4-1.16,2.1-2.93,2.1s-3.19-1.06-3.43-2.63l-3.56.87ZM174.64,468.74c-.63-2.26-2.46-3.53-4.86-3.53s-4.36,1.3-5.12,3.63l-.5-3.23h-3.36v16.74h4.09v-9.38c0-3.06,1.53-4.29,3.29-4.29,1.93,0,2.66,1.2,2.66,3.06v10.62h4.13v-9.42c0-3.06,1.53-4.26,3.26-4.26,1.96,0,2.7,1.2,2.7,3.06v10.62h4.09v-11.85c0-3.49-2.16-5.29-5.16-5.29-2.4,0-4.33,1.33-5.22,3.53ZM202.33,470.6c0-3.53-2.16-5.39-6.32-5.39-3.73,0-6.36,1.86-6.69,5.09l3.86.6c.03-1.63.9-2.63,2.63-2.63s2.6.97,2.6,2.56v1.86c-.6-.07-1.33-.1-1.83-.1-5.22,0-8.02,2-8.02,5.32,0,3.03,2.2,4.76,5.26,4.76,2.16,0,4.16-.97,4.83-2.73.13.47.3.87.5,1.23.63.97,1.7,1.5,3.09,1.5.87,0,1.8-.23,2.4-.63l-.17-2.8c-.23.2-.6.33-.97.33-.7,0-1.16-.33-1.16-1.3v-7.69ZM198.4,476.23c0,2.63-1.66,3.66-3.33,3.66s-2.53-.9-2.53-2.23c0-1.83,1.56-2.7,4.49-2.7.5,0,1,.07,1.36.1v1.16ZM217.87,465.34c-3.16-.6-5.52,1.4-6.22,4.33l-.47-4.06h-3.46v16.74h4.09v-8.09c0-3.26,1.8-4.96,4.13-4.96.6,0,1.3.1,1.7.23l.23-4.19ZM230.5,478.52c-.93.6-1.66.87-2.66.87-1.3,0-2.13-.67-2.13-2.26v-8.45h4.69v-3.06h-4.69v-4.09l-4.13.53v3.56h-2.26v3.06h2.26v8.95c0,3.53,2.16,5.12,5.49,5.12,1.46,0,2.93-.43,3.99-1.2l-.57-3.03ZM241.26,479.62c-2.43,0-3.89-1.83-3.99-4.93h10.58c.17-.47.33-1.36.33-2.23,0-4.06-2.36-7.25-6.92-7.25-4.86,0-7.92,3.43-7.92,8.89s3.06,8.65,7.89,8.65c3.09,0,5.89-1.36,6.79-4.63l-3.39-1.1c-.47,1.83-1.66,2.6-3.36,2.6ZM237.33,472.43c.27-2.66,1.66-4.26,3.86-4.26,2.03,0,3.09,1.56,3.09,3.43,0,.23,0,.57-.03.83h-6.92ZM262.13,465.34c-3.16-.6-5.52,1.4-6.22,4.33l-.47-4.06h-3.46v16.74h4.09v-8.09c0-3.26,1.8-4.96,4.13-4.96.6,0,1.3.1,1.7.23l.23-4.19ZM271.61,478.16c.6,3,3.39,4.59,6.96,4.59,3.96,0,6.86-1.86,6.86-5.29,0-6.72-9.32-3.63-9.32-7.29,0-1.36,1-2.16,2.66-2.16,1.8,0,2.76.97,2.9,2.4l3.56-.43c-.4-3.06-2.66-4.76-6.49-4.76-3.63,0-6.49,1.93-6.49,5.32,0,6.52,9.28,3.59,9.28,7.29,0,1.4-1.16,2.1-2.93,2.1s-3.19-1.06-3.43-2.63l-3.56.87ZM299.91,482.35h3.43v-16.74h-4.13v9.45c0,3.09-1.53,4.43-3.43,4.43-1.73,0-2.7-1.13-2.7-3.06v-10.82h-4.09v11.75c0,3.66,2.43,5.39,5.19,5.39,2.56,0,4.46-1.16,5.22-3.53l.5,3.13ZM318.42,465.34c-3.16-.6-5.52,1.4-6.22,4.33l-.47-4.06h-3.46v16.74h4.09v-8.09c0-3.26,1.8-4.96,4.13-4.96.6,0,1.3.1,1.7.23l.23-4.19ZM328.18,477.92l-3.93-12.31h-4.33l6.16,16.74h4.09l6.12-16.74h-3.96l-4.09,12.31h-.07ZM345.87,479.62c-2.43,0-3.89-1.83-3.99-4.93h10.58c.17-.47.33-1.36.33-2.23,0-4.06-2.36-7.25-6.92-7.25-4.86,0-7.92,3.43-7.92,8.89s3.06,8.65,7.89,8.65c3.09,0,5.89-1.36,6.79-4.63l-3.39-1.1c-.47,1.83-1.66,2.6-3.36,2.6ZM341.94,472.43c.27-2.66,1.66-4.26,3.86-4.26,2.03,0,3.09,1.56,3.09,3.43,0,.23,0,.57-.03.83h-6.92ZM362.79,478.32h-.07l-3.93-12.71h-4.33l6.12,17.34c-.9,2.5-1.56,3.16-2.96,3.16-.77,0-1.3-.23-1.96-.7l-.7,3.13c.7.43,1.8.8,3,.8,3.06,0,5.03-1.6,6.72-6.32l6.16-17.4h-3.99l-4.06,12.71ZM372.29,478.16c.6,3,3.39,4.59,6.96,4.59,3.96,0,6.86-1.86,6.86-5.29,0-6.72-9.32-3.63-9.32-7.29,0-1.36,1-2.16,2.66-2.16,1.8,0,2.76.97,2.9,2.4l3.56-.43c-.4-3.06-2.66-4.76-6.49-4.76-3.63,0-6.49,1.93-6.49,5.32,0,6.52,9.28,3.59,9.28,7.29,0,1.4-1.16,2.1-2.93,2.1s-3.19-1.06-3.43-2.63l-3.56.87ZM408.46,488.94h4.09v-23.33h-3.23l-.5,2.73c-.67-1.8-2.53-3.13-5.09-3.13-4.29,0-7.09,3.29-7.09,9.09s3.06,8.45,6.79,8.45c2.16,0,4.13-.87,5.03-3.29v9.48ZM408.46,474.93c0,3.23-1.86,4.59-3.73,4.59-2.4,0-3.89-1.83-3.89-5.32,0-4.06,1.63-5.89,3.96-5.89,1.7,0,3.66,1.23,3.66,4.09v2.53ZM428.22,482.35h3.43v-16.74h-4.13v9.45c0,3.09-1.53,4.43-3.43,4.43-1.73,0-2.7-1.13-2.7-3.06v-10.82h-4.09v11.75c0,3.66,2.43,5.39,5.19,5.39,2.56,0,4.46-1.16,5.22-3.53l.5,3.13ZM441.2,460.72c0-1.5-1.2-2.46-2.6-2.46s-2.56.97-2.56,2.46,1.16,2.46,2.56,2.46,2.6-.97,2.6-2.46ZM436.58,465.61v16.74h4.09v-16.74h-4.09ZM444.51,474c0,5.46,3.09,8.75,7.92,8.75,3.56,0,6.06-1.96,6.62-5.22l-3.63-.97c-.17,1.83-1.26,3.09-3,3.09-2.56,0-3.83-2.23-3.83-5.66s1.26-5.69,3.79-5.69c1.86,0,2.86,1.36,3,3.06l3.59-.77c-.33-3.23-2.83-5.39-6.62-5.39-4.76,0-7.85,3.29-7.85,8.79ZM471.49,473.3l6.09-7.69h-4.63l-4.96,6.32h-1.3v-13.61h-4.09v24.03h4.09v-7.39h1.23l5.46,7.39h4.79l-6.69-9.05ZM487.3,478.99c-.47.3-.9.43-1.36.43-.9,0-1.36-.47-1.36-1.5v-19.6h-4.09v20.37c0,2.93,1.83,3.99,4.06,3.99,1.2,0,2.33-.3,3.06-.73l-.3-2.96ZM496.92,478.32h-.07l-3.93-12.71h-4.33l6.12,17.34c-.9,2.5-1.56,3.16-2.96,3.16-.77,0-1.3-.23-1.96-.7l-.7,3.13c.7.43,1.8.8,3,.8,3.06,0,5.03-1.6,6.72-6.32l6.16-17.4h-3.99l-4.06,12.71Z"/>
  </g>
  <rect class="cls-1" width="540" height="540"/>
</svg>