<?xml version="1.0" encoding="UTF-8"?>
<svg id="Layer_2" data-name="Layer 2" xmlns="http://www.w3.org/2000/svg" viewBox="0 0 108.74 108.73">
  <defs>
    <style>
      .cls-1 {
        fill: #fff;
      }
    </style>
  </defs>
  <g id="Layer_1-2" data-name="Layer 1">
    <path class="cls-1" d="M54.36,0C24.39,0,0,24.39,0,54.37s24.39,54.37,54.36,54.37,54.37-24.39,54.37-54.37S84.34,0,54.36,0ZM68.16,97.18l14.87-48.05h-13.27l-9.58,10.16h9.14l-12.44,39.99c-.84.05-1.68.08-2.53.08-24.8,0-44.98-20.18-44.98-44.98,0-20.3,13.51-37.49,32.02-43.07l-15.17,48.11h27.99l3.73-10.16h-17.67l12.39-39.82c.56-.02,1.13-.04,1.69-.04,24.81,0,44.99,20.18,44.99,44.99,0,19.99-13.11,36.97-31.19,42.81Z"/>
  </g>
</svg>