<?xml version="1.0" encoding="UTF-8"?>
<svg id="Layer_2" data-name="Layer 2" xmlns="http://www.w3.org/2000/svg" viewBox="0 0 75.61 78.47">
  <defs>
    <style>
      .cls-1 {
        fill: #fff;
      }
    </style>
  </defs>
  <g id="Layer_1-2" data-name="Layer 1">
    <path class="cls-1" d="M73.11,78.47c-1.38,0-2.5-1.12-2.5-2.5V5h-8.97c-4.83,7.71-15.25,10.48-19.84,11.35v9.29h12.42c1.38,0,2.5,1.12,2.5,2.5v47.83c0,1.38-1.12,2.5-2.5,2.5H2.5c-1.38,0-2.5-1.12-2.5-2.5V2.5C0,1.12,1.12,0,2.5,0h19c1.38,0,2.5,1.12,2.5,2.5v53.97h17.83c1.38,0,2.5,1.12,2.5,2.5s-1.12,2.5-2.5,2.5h-20.33c-1.38,0-2.5-1.12-2.5-2.5V5H5v68.47h46.71V30.64h-12.42c-1.38,0-2.5-1.12-2.5-2.5v-13.92c0-1.27.96-2.34,2.22-2.48.14-.02,14.63-1.75,18.92-10.35.42-.85,1.29-1.38,2.24-1.38h12.93c1.38,0,2.5,1.12,2.5,2.5v73.47c0,1.38-1.12,2.5-2.5,2.5Z"/>
  </g>
</svg>